<svg xmlns="http://www.w3.org/2000/svg" xmlns:xlink="http://www.w3.org/1999/xlink" width="80" zoomAndPan="magnify" viewBox="0 0 60 30.000001" height="40" preserveAspectRatio="xMidYMid meet" version="1.0"><defs><g/><clipPath id="862de78bba"><path d="M 17 7 L 59.03125 7 L 59.03125 22 L 17 22 Z M 17 7 " clip-rule="nonzero"/></clipPath><clipPath id="2129c9975a"><rect x="0" width="43" y="0" height="15"/></clipPath><clipPath id="8861d3602c"><path d="M 3 11 L 16.972656 11 L 16.972656 19 L 3 19 Z M 3 11 " clip-rule="nonzero"/></clipPath><clipPath id="3b2a737c3d"><path d="M 1.730469 15 L 5 15 L 5 16 L 1.730469 16 Z M 1.730469 15 " clip-rule="nonzero"/></clipPath><clipPath id="8c49f6f672"><path d="M 13 15 L 16.972656 15 L 16.972656 18 L 13 18 Z M 13 15 " clip-rule="nonzero"/></clipPath><clipPath id="81638b499b"><path d="M 1.730469 16 L 5 16 L 5 18 L 1.730469 18 Z M 1.730469 16 " clip-rule="nonzero"/></clipPath><clipPath id="94507b385c"><path d="M 5 19 L 14 19 L 14 19.453125 L 5 19.453125 Z M 5 19 " clip-rule="nonzero"/></clipPath></defs><g clip-path="url(#862de78bba)"><g transform="matrix(1, 0, 0, 1, 17, 7)"><g clip-path="url(#2129c9975a)"><g fill="#0057ff" fill-opacity="0.302"><g transform="translate(1.790202, 11.604896)"><g><path d="M 4.28125 -9.28125 L 4.28125 -7.875 L 1.875 -1.40625 L 4.28125 -1.40625 L 4.28125 0 L 0.40625 0 L 0.40625 -1.40625 L 2.8125 -7.875 L 0.40625 -7.875 L 0.40625 -9.28125 Z M 4.28125 -9.28125 "/></g></g></g><g fill="#0057ff" fill-opacity="0.302"><g transform="translate(6.467274, 11.604896)"><g><path d="M 0.53125 0 L 0.53125 -8.015625 C 0.53125 -8.367188 0.648438 -8.664062 0.890625 -8.90625 C 1.128906 -9.15625 1.410156 -9.28125 1.734375 -9.28125 L 3.40625 -9.28125 C 3.738281 -9.28125 4.019531 -9.15625 4.25 -8.90625 C 4.488281 -8.664062 4.609375 -8.367188 4.609375 -8.015625 L 4.609375 0 L 3.140625 0 L 3.140625 -3.9375 L 2 -3.34375 L 2 0 Z M 2 -4.984375 L 3.140625 -5.578125 L 3.140625 -7.875 L 2 -7.875 Z M 2 -4.984375 "/></g></g></g><g fill="#0057ff" fill-opacity="0.302"><g transform="translate(11.612053, 11.604896)"><g><path d="M 3.140625 -5.40625 L 3.140625 -7.875 L 2 -7.875 L 2 -4.8125 Z M 2 0 L 0.53125 0 L 0.53125 -9.28125 L 3.40625 -9.28125 C 3.738281 -9.28125 4.019531 -9.15625 4.25 -8.90625 C 4.488281 -8.664062 4.609375 -8.367188 4.609375 -8.015625 L 4.609375 -4.5 L 2 -3.171875 Z M 2 0 "/></g></g></g><g fill="#0057ff" fill-opacity="0.302"><g transform="translate(16.6232, 11.604896)"><g/></g></g><g fill="#0057ff" fill-opacity="0.302"><g transform="translate(19.162182, 11.604896)"><g><path d="M 0.53125 -8.015625 C 0.53125 -8.378906 0.648438 -8.679688 0.890625 -8.921875 C 1.128906 -9.160156 1.410156 -9.28125 1.734375 -9.28125 L 3.40625 -9.28125 C 3.738281 -9.28125 4.019531 -9.15625 4.25 -8.90625 C 4.488281 -8.664062 4.609375 -8.367188 4.609375 -8.015625 L 4.609375 -7.609375 L 3.140625 -6.875 L 3.140625 -7.875 L 2 -7.875 L 2 -5.40625 L 4.609375 -6.75 L 4.609375 -1.265625 C 4.609375 -0.921875 4.488281 -0.625 4.25 -0.375 C 4.019531 -0.125 3.738281 0 3.40625 0 L 1.734375 0 C 1.410156 0 1.128906 -0.117188 0.890625 -0.359375 C 0.648438 -0.609375 0.53125 -0.910156 0.53125 -1.265625 L 0.53125 -2.140625 L 2 -2.875 L 2 -1.40625 L 3.140625 -1.40625 L 3.140625 -4.34375 L 0.53125 -3 Z M 0.53125 -8.015625 "/></g></g></g><g fill="#0057ff" fill-opacity="0.302"><g transform="translate(24.30696, 11.604896)"><g><path d="M 3.140625 -4.28125 L 2 -3.6875 L 2 0 L 0.53125 0 L 0.53125 -9.28125 L 2 -9.28125 L 2 -5.328125 L 3.140625 -5.9375 L 3.140625 -9.28125 L 4.609375 -9.28125 L 4.609375 0 L 3.140625 0 Z M 3.140625 -4.28125 "/></g></g></g><g fill="#0057ff" fill-opacity="0.302"><g transform="translate(29.451738, 11.604896)"><g><path d="M 0.53125 0 L 0.53125 -9.28125 L 2 -9.28125 L 2 0 Z M 0.53125 0 "/></g></g></g><g fill="#0057ff" fill-opacity="0.302"><g transform="translate(31.990718, 11.604896)"><g><path d="M 3.140625 -5.40625 L 3.140625 -7.875 L 2 -7.875 L 2 -4.8125 Z M 2 0 L 0.53125 0 L 0.53125 -9.28125 L 3.40625 -9.28125 C 3.738281 -9.28125 4.019531 -9.15625 4.25 -8.90625 C 4.488281 -8.664062 4.609375 -8.367188 4.609375 -8.015625 L 4.609375 -4.5 L 2 -3.171875 Z M 2 0 "/></g></g></g><g fill="#0057ff" fill-opacity="0.302"><g transform="translate(37.001867, 11.604896)"><g><path d="M 1.671875 0 L 1.671875 -7.875 L 0.203125 -7.875 L 0.203125 -9.28125 L 4.609375 -9.28125 L 4.609375 -7.875 L 3.140625 -7.875 L 3.140625 0 Z M 1.671875 0 "/></g></g></g><g fill="#0057ff" fill-opacity="0.502"><g transform="translate(1.349962, 11.273152)"><g><path d="M 4.28125 -9.28125 L 4.28125 -7.875 L 1.875 -1.40625 L 4.28125 -1.40625 L 4.28125 0 L 0.40625 0 L 0.40625 -1.40625 L 2.8125 -7.875 L 0.40625 -7.875 L 0.40625 -9.28125 Z M 4.28125 -9.28125 "/></g></g></g><g fill="#0057ff" fill-opacity="0.502"><g transform="translate(6.027034, 11.273152)"><g><path d="M 0.53125 0 L 0.53125 -8.015625 C 0.53125 -8.367188 0.648438 -8.664062 0.890625 -8.90625 C 1.128906 -9.15625 1.410156 -9.28125 1.734375 -9.28125 L 3.40625 -9.28125 C 3.738281 -9.28125 4.019531 -9.15625 4.25 -8.90625 C 4.488281 -8.664062 4.609375 -8.367188 4.609375 -8.015625 L 4.609375 0 L 3.140625 0 L 3.140625 -3.9375 L 2 -3.34375 L 2 0 Z M 2 -4.984375 L 3.140625 -5.578125 L 3.140625 -7.875 L 2 -7.875 Z M 2 -4.984375 "/></g></g></g><g fill="#0057ff" fill-opacity="0.502"><g transform="translate(11.171813, 11.273152)"><g><path d="M 3.140625 -5.40625 L 3.140625 -7.875 L 2 -7.875 L 2 -4.8125 Z M 2 0 L 0.53125 0 L 0.53125 -9.28125 L 3.40625 -9.28125 C 3.738281 -9.28125 4.019531 -9.15625 4.25 -8.90625 C 4.488281 -8.664062 4.609375 -8.367188 4.609375 -8.015625 L 4.609375 -4.5 L 2 -3.171875 Z M 2 0 "/></g></g></g><g fill="#0057ff" fill-opacity="0.502"><g transform="translate(16.18296, 11.273152)"><g/></g></g><g fill="#0057ff" fill-opacity="0.502"><g transform="translate(18.721942, 11.273152)"><g><path d="M 0.53125 -8.015625 C 0.53125 -8.378906 0.648438 -8.679688 0.890625 -8.921875 C 1.128906 -9.160156 1.410156 -9.28125 1.734375 -9.28125 L 3.40625 -9.28125 C 3.738281 -9.28125 4.019531 -9.15625 4.25 -8.90625 C 4.488281 -8.664062 4.609375 -8.367188 4.609375 -8.015625 L 4.609375 -7.609375 L 3.140625 -6.875 L 3.140625 -7.875 L 2 -7.875 L 2 -5.40625 L 4.609375 -6.75 L 4.609375 -1.265625 C 4.609375 -0.921875 4.488281 -0.625 4.25 -0.375 C 4.019531 -0.125 3.738281 0 3.40625 0 L 1.734375 0 C 1.410156 0 1.128906 -0.117188 0.890625 -0.359375 C 0.648438 -0.609375 0.53125 -0.910156 0.53125 -1.265625 L 0.53125 -2.140625 L 2 -2.875 L 2 -1.40625 L 3.140625 -1.40625 L 3.140625 -4.34375 L 0.53125 -3 Z M 0.53125 -8.015625 "/></g></g></g><g fill="#0057ff" fill-opacity="0.502"><g transform="translate(23.86672, 11.273152)"><g><path d="M 3.140625 -4.28125 L 2 -3.6875 L 2 0 L 0.53125 0 L 0.53125 -9.28125 L 2 -9.28125 L 2 -5.328125 L 3.140625 -5.9375 L 3.140625 -9.28125 L 4.609375 -9.28125 L 4.609375 0 L 3.140625 0 Z M 3.140625 -4.28125 "/></g></g></g><g fill="#0057ff" fill-opacity="0.502"><g transform="translate(29.011499, 11.273152)"><g><path d="M 0.53125 0 L 0.53125 -9.28125 L 2 -9.28125 L 2 0 Z M 0.53125 0 "/></g></g></g><g fill="#0057ff" fill-opacity="0.502"><g transform="translate(31.550478, 11.273152)"><g><path d="M 3.140625 -5.40625 L 3.140625 -7.875 L 2 -7.875 L 2 -4.8125 Z M 2 0 L 0.53125 0 L 0.53125 -9.28125 L 3.40625 -9.28125 C 3.738281 -9.28125 4.019531 -9.15625 4.25 -8.90625 C 4.488281 -8.664062 4.609375 -8.367188 4.609375 -8.015625 L 4.609375 -4.5 L 2 -3.171875 Z M 2 0 "/></g></g></g><g fill="#0057ff" fill-opacity="0.502"><g transform="translate(36.561627, 11.273152)"><g><path d="M 1.671875 0 L 1.671875 -7.875 L 0.203125 -7.875 L 0.203125 -9.28125 L 4.609375 -9.28125 L 4.609375 -7.875 L 3.140625 -7.875 L 3.140625 0 Z M 1.671875 0 "/></g></g></g><g fill="#0057ff" fill-opacity="0.302"><g transform="translate(41.813265, 11.604896)"><g/></g></g><g fill="#0057ff" fill-opacity="0.502"><g transform="translate(41.373025, 11.273152)"><g/></g></g><g fill="#000000" fill-opacity="1"><g transform="translate(0.909722, 10.941407)"><g><path d="M 4.28125 -9.28125 L 4.28125 -7.875 L 1.875 -1.40625 L 4.28125 -1.40625 L 4.28125 0 L 0.40625 0 L 0.40625 -1.40625 L 2.8125 -7.875 L 0.40625 -7.875 L 0.40625 -9.28125 Z M 4.28125 -9.28125 "/></g></g></g><g fill="#000000" fill-opacity="1"><g transform="translate(5.586794, 10.941407)"><g><path d="M 0.53125 0 L 0.53125 -8.015625 C 0.53125 -8.367188 0.648438 -8.664062 0.890625 -8.90625 C 1.128906 -9.15625 1.410156 -9.28125 1.734375 -9.28125 L 3.40625 -9.28125 C 3.738281 -9.28125 4.019531 -9.15625 4.25 -8.90625 C 4.488281 -8.664062 4.609375 -8.367188 4.609375 -8.015625 L 4.609375 0 L 3.140625 0 L 3.140625 -3.9375 L 2 -3.34375 L 2 0 Z M 2 -4.984375 L 3.140625 -5.578125 L 3.140625 -7.875 L 2 -7.875 Z M 2 -4.984375 "/></g></g></g><g fill="#000000" fill-opacity="1"><g transform="translate(10.731573, 10.941407)"><g><path d="M 3.140625 -5.40625 L 3.140625 -7.875 L 2 -7.875 L 2 -4.8125 Z M 2 0 L 0.53125 0 L 0.53125 -9.28125 L 3.40625 -9.28125 C 3.738281 -9.28125 4.019531 -9.15625 4.25 -8.90625 C 4.488281 -8.664062 4.609375 -8.367188 4.609375 -8.015625 L 4.609375 -4.5 L 2 -3.171875 Z M 2 0 "/></g></g></g><g fill="#000000" fill-opacity="1"><g transform="translate(15.74272, 10.941407)"><g/></g></g><g fill="#000000" fill-opacity="1"><g transform="translate(18.281702, 10.941407)"><g><path d="M 0.53125 -8.015625 C 0.53125 -8.378906 0.648438 -8.679688 0.890625 -8.921875 C 1.128906 -9.160156 1.410156 -9.28125 1.734375 -9.28125 L 3.40625 -9.28125 C 3.738281 -9.28125 4.019531 -9.15625 4.25 -8.90625 C 4.488281 -8.664062 4.609375 -8.367188 4.609375 -8.015625 L 4.609375 -7.609375 L 3.140625 -6.875 L 3.140625 -7.875 L 2 -7.875 L 2 -5.40625 L 4.609375 -6.75 L 4.609375 -1.265625 C 4.609375 -0.921875 4.488281 -0.625 4.25 -0.375 C 4.019531 -0.125 3.738281 0 3.40625 0 L 1.734375 0 C 1.410156 0 1.128906 -0.117188 0.890625 -0.359375 C 0.648438 -0.609375 0.53125 -0.910156 0.53125 -1.265625 L 0.53125 -2.140625 L 2 -2.875 L 2 -1.40625 L 3.140625 -1.40625 L 3.140625 -4.34375 L 0.53125 -3 Z M 0.53125 -8.015625 "/></g></g></g><g fill="#000000" fill-opacity="1"><g transform="translate(23.42648, 10.941407)"><g><path d="M 3.140625 -4.28125 L 2 -3.6875 L 2 0 L 0.53125 0 L 0.53125 -9.28125 L 2 -9.28125 L 2 -5.328125 L 3.140625 -5.9375 L 3.140625 -9.28125 L 4.609375 -9.28125 L 4.609375 0 L 3.140625 0 Z M 3.140625 -4.28125 "/></g></g></g><g fill="#000000" fill-opacity="1"><g transform="translate(28.571259, 10.941407)"><g><path d="M 0.53125 0 L 0.53125 -9.28125 L 2 -9.28125 L 2 0 Z M 0.53125 0 "/></g></g></g><g fill="#000000" fill-opacity="1"><g transform="translate(31.110238, 10.941407)"><g><path d="M 3.140625 -5.40625 L 3.140625 -7.875 L 2 -7.875 L 2 -4.8125 Z M 2 0 L 0.53125 0 L 0.53125 -9.28125 L 3.40625 -9.28125 C 3.738281 -9.28125 4.019531 -9.15625 4.25 -8.90625 C 4.488281 -8.664062 4.609375 -8.367188 4.609375 -8.015625 L 4.609375 -4.5 L 2 -3.171875 Z M 2 0 "/></g></g></g><g fill="#000000" fill-opacity="1"><g transform="translate(36.121387, 10.941407)"><g><path d="M 1.671875 0 L 1.671875 -7.875 L 0.203125 -7.875 L 0.203125 -9.28125 L 4.609375 -9.28125 L 4.609375 -7.875 L 3.140625 -7.875 L 3.140625 0 Z M 1.671875 0 "/></g></g></g><g fill="#000000" fill-opacity="1"><g transform="translate(40.932785, 10.941407)"><g/></g></g></g></g></g><path fill="#7ed957" d="M 9.773438 9.4375 C 9.777344 9.445312 9.78125 9.449219 9.789062 9.449219 C 9.839844 9.449219 9.890625 9.445312 9.941406 9.460938 C 10.046875 9.488281 10.152344 9.53125 10.25 9.582031 C 10.363281 9.644531 10.429688 9.714844 10.507812 9.816406 C 10.65625 9.996094 10.886719 10.050781 11.097656 9.953125 C 11.34375 9.832031 11.46875 9.546875 11.472656 9.28125 C 11.476562 9.1875 11.476562 9.097656 11.472656 9.011719 C 11.472656 9.011719 11.472656 9.007812 11.472656 9.007812 C 11.472656 9.003906 11.46875 9.003906 11.464844 9.003906 C 11.238281 9.035156 11.015625 9.070312 10.792969 9.109375 C 10.726562 9.121094 10.691406 9.136719 10.695312 9.207031 C 10.703125 9.308594 10.707031 9.40625 10.714844 9.503906 C 10.714844 9.511719 10.710938 9.511719 10.703125 9.511719 C 10.644531 9.480469 10.59375 9.449219 10.542969 9.40625 C 10.402344 9.285156 10.421875 9.054688 10.558594 8.949219 C 10.644531 8.886719 10.792969 8.859375 10.90625 8.84375 C 11.234375 8.800781 11.558594 8.757812 11.886719 8.71875 C 11.925781 8.710938 11.957031 8.703125 11.980469 8.683594 C 12.039062 8.644531 12.089844 8.59375 12.125 8.53125 C 12.128906 8.527344 12.128906 8.523438 12.121094 8.523438 L 11.4375 8.519531 C 11.433594 8.519531 11.425781 8.519531 11.421875 8.511719 C 11.328125 8.375 11.21875 8.269531 11.089844 8.195312 C 10.453125 7.835938 9.6875 8.320312 9.742188 9.054688 C 9.753906 9.226562 9.765625 9.355469 9.773438 9.4375 Z M 9.773438 9.4375 " fill-opacity="1" fill-rule="nonzero"/><path fill="#7ed957" d="M 6.078125 12.066406 C 6.496094 12.214844 6.914062 12.367188 7.335938 12.519531 C 7.472656 12.570312 7.570312 12.59375 7.625 12.59375 C 7.757812 12.597656 7.871094 12.539062 7.964844 12.417969 C 7.964844 12.414062 7.972656 12.414062 7.976562 12.414062 L 8.328125 12.5 C 8.332031 12.503906 8.335938 12.507812 8.332031 12.511719 C 8.238281 12.785156 8.257812 13.03125 8.394531 13.257812 C 8.523438 13.472656 8.734375 13.613281 8.984375 13.617188 C 9.464844 13.621094 10.207031 13.613281 11.207031 13.59375 C 11.214844 13.59375 11.21875 13.597656 11.21875 13.601562 C 11.339844 14.308594 11.5 15.007812 11.636719 15.707031 C 11.640625 15.726562 11.648438 15.730469 11.667969 15.722656 L 12.226562 15.488281 C 12.238281 15.480469 12.25 15.464844 12.25 15.453125 C 12.21875 14.769531 12.183594 14.089844 12.144531 13.40625 C 12.136719 13.28125 12.125 13.191406 12.101562 13.132812 C 12.035156 12.945312 11.894531 12.832031 11.679688 12.789062 C 11.464844 12.75 11.179688 12.738281 10.996094 12.71875 C 10.609375 12.679688 10.226562 12.640625 9.839844 12.605469 C 9.832031 12.605469 9.828125 12.601562 9.832031 12.59375 L 10.101562 11.910156 C 10.105469 11.90625 10.101562 11.902344 10.101562 11.898438 L 9.816406 11.441406 C 9.808594 11.429688 9.792969 11.425781 9.78125 11.433594 L 8.566406 12.117188 C 8.5625 12.121094 8.558594 12.121094 8.550781 12.121094 C 8.402344 12.09375 8.253906 12.066406 8.105469 12.039062 C 8.101562 12.035156 8.097656 12.035156 8.101562 12.027344 L 8.773438 10.347656 C 8.777344 10.335938 8.789062 10.328125 8.800781 10.332031 L 9.058594 10.402344 C 9.0625 10.402344 9.066406 10.40625 9.0625 10.414062 C 9.039062 10.492188 9.015625 10.550781 9.003906 10.582031 C 8.839844 10.992188 8.667969 11.410156 8.484375 11.84375 C 8.480469 11.84375 8.480469 11.847656 8.484375 11.847656 C 8.484375 11.847656 8.484375 11.851562 8.488281 11.847656 L 9.871094 11.085938 C 9.878906 11.082031 9.890625 11.085938 9.894531 11.09375 C 10.074219 11.367188 10.25 11.640625 10.417969 11.917969 C 10.492188 12.039062 10.550781 12.117188 10.589844 12.152344 C 10.730469 12.273438 10.867188 12.285156 11.058594 12.28125 C 11.402344 12.277344 11.746094 12.273438 12.089844 12.265625 C 12.097656 12.265625 12.101562 12.261719 12.101562 12.257812 C 12.089844 12.070312 12.160156 11.925781 12.257812 11.773438 C 12.257812 11.773438 12.257812 11.773438 12.257812 11.769531 C 12.257812 11.765625 12.253906 11.761719 12.25 11.757812 L 11.0625 11.578125 C 11.058594 11.578125 11.054688 11.574219 11.050781 11.570312 C 10.878906 11.1875 10.714844 10.796875 10.554688 10.402344 C 10.507812 10.292969 10.460938 10.191406 10.414062 10.105469 C 10.160156 9.636719 9.59375 9.664062 9.277344 10.042969 C 9.273438 10.046875 9.265625 10.046875 9.261719 10.046875 L 8.941406 9.957031 C 8.933594 9.957031 8.933594 9.953125 8.933594 9.945312 C 8.964844 9.785156 8.921875 9.65625 8.8125 9.5625 C 8.777344 9.535156 8.722656 9.507812 8.652344 9.480469 C 8.222656 9.324219 7.792969 9.171875 7.359375 9.015625 C 7.148438 8.941406 7.007812 8.917969 6.835938 9.027344 C 6.75 9.082031 6.710938 9.144531 6.679688 9.234375 C 6.648438 9.3125 6.59375 9.421875 6.558594 9.511719 C 6.304688 10.140625 6.050781 10.769531 5.800781 11.398438 C 5.761719 11.503906 5.738281 11.578125 5.734375 11.621094 C 5.71875 11.839844 5.878906 11.992188 6.078125 12.066406 Z M 6.871094 9.453125 L 6.957031 9.273438 C 6.957031 9.265625 6.96875 9.261719 6.976562 9.265625 L 8.433594 9.785156 C 8.441406 9.789062 8.441406 9.792969 8.4375 9.800781 L 8.355469 9.984375 C 8.351562 9.992188 8.347656 9.992188 8.34375 9.992188 C 7.851562 9.828125 7.363281 9.652344 6.875 9.464844 C 6.871094 9.464844 6.871094 9.457031 6.871094 9.453125 Z M 6.871094 9.453125 " fill-opacity="1" fill-rule="nonzero"/><path fill="#7ed957" d="M 3.667969 10.808594 C 4.183594 10.875 4.699219 10.925781 5.214844 10.960938 C 5.429688 10.976562 5.496094 10.683594 5.277344 10.660156 C 5.238281 10.652344 5.191406 10.667969 5.148438 10.667969 C 4.652344 10.695312 4.160156 10.742188 3.667969 10.804688 C 3.664062 10.804688 3.664062 10.804688 3.664062 10.804688 C 3.664062 10.808594 3.664062 10.808594 3.667969 10.808594 Z M 3.667969 10.808594 " fill-opacity="1" fill-rule="nonzero"/><g clip-path="url(#8861d3602c)"><path fill="#7ed957" d="M 16.472656 16.472656 C 16.46875 16.464844 16.460938 16.460938 16.449219 16.460938 C 15.894531 16.496094 15.328125 16.683594 14.835938 16.949219 C 14.445312 17.164062 14.097656 17.460938 13.792969 17.84375 C 13.789062 17.847656 13.789062 17.851562 13.789062 17.855469 C 13.882812 18.101562 14.027344 18.316406 14.214844 18.492188 C 14.285156 18.558594 14.371094 18.609375 14.453125 18.664062 C 14.457031 18.667969 14.457031 18.671875 14.449219 18.671875 C 13.78125 18.644531 13.117188 18.621094 12.449219 18.59375 C 12.21875 18.582031 12.050781 18.578125 11.933594 18.578125 C 10.675781 18.5625 9.414062 18.550781 8.152344 18.574219 C 8.109375 18.574219 8.066406 18.597656 8.015625 18.597656 C 8.003906 18.597656 8.003906 18.59375 8.011719 18.589844 C 8.347656 18.367188 8.5625 18.058594 8.660156 17.667969 C 8.660156 17.664062 8.660156 17.664062 8.660156 17.664062 C 8.660156 17.660156 8.65625 17.65625 8.652344 17.65625 L 7.949219 17.667969 C 7.941406 17.667969 7.929688 17.671875 7.925781 17.679688 C 7.726562 18.011719 7.445312 18.195312 7.039062 18.128906 C 6.675781 18.070312 6.421875 17.785156 6.367188 17.429688 C 6.367188 17.429688 6.367188 17.425781 6.367188 17.425781 C 6.367188 17.417969 6.375 17.410156 6.382812 17.410156 L 6.800781 17.410156 C 6.808594 17.410156 6.8125 17.414062 6.816406 17.417969 C 6.929688 17.777344 7.425781 17.796875 7.523438 17.421875 C 7.527344 17.417969 7.53125 17.414062 7.535156 17.414062 C 7.722656 17.410156 7.914062 17.414062 8.09375 17.402344 C 8.398438 17.386719 8.707031 17.363281 9.015625 17.339844 C 9.132812 17.332031 9.253906 17.328125 9.371094 17.328125 C 10.230469 17.328125 11.09375 17.328125 11.953125 17.328125 C 12.121094 17.324219 12.238281 17.320312 12.304688 17.308594 C 12.714844 17.238281 13.082031 16.957031 13.308594 16.617188 C 13.503906 16.320312 13.660156 15.992188 13.894531 15.726562 C 14.144531 15.433594 14.457031 15.234375 14.832031 15.125 C 14.835938 15.121094 14.839844 15.117188 14.839844 15.113281 C 14.847656 14.960938 14.820312 14.828125 14.761719 14.71875 C 14.722656 14.640625 14.613281 14.472656 14.4375 14.214844 C 14.242188 13.925781 14.042969 13.644531 13.847656 13.351562 C 13.679688 13.097656 13.503906 12.84375 13.328125 12.59375 C 13.328125 12.589844 13.328125 12.589844 13.328125 12.589844 C 13.511719 12.59375 13.695312 12.601562 13.875 12.605469 C 13.929688 12.605469 13.96875 12.597656 13.992188 12.582031 C 14.023438 12.558594 14.042969 12.519531 14.050781 12.46875 C 14.105469 12.179688 14.109375 11.902344 14.070312 11.640625 C 14.050781 11.519531 14.03125 11.417969 13.894531 11.421875 C 13.566406 11.429688 13.269531 11.539062 12.972656 11.6875 C 12.96875 11.6875 12.96875 11.6875 12.96875 11.6875 C 12.964844 11.695312 12.964844 11.699219 12.96875 11.703125 C 13.136719 11.8125 13.226562 11.957031 13.226562 12.140625 C 13.230469 12.414062 13.0625 12.640625 12.796875 12.71875 C 12.789062 12.722656 12.785156 12.726562 12.789062 12.734375 C 12.792969 12.765625 12.8125 12.808594 12.820312 12.828125 C 12.929688 13.167969 13.039062 13.507812 13.152344 13.84375 C 13.265625 14.171875 13.351562 14.433594 13.40625 14.726562 C 13.480469 15.109375 13.382812 15.511719 13.179688 15.835938 C 12.945312 16.214844 12.621094 16.484375 12.183594 16.605469 C 12.082031 16.632812 11.996094 16.648438 11.929688 16.648438 C 11.734375 16.65625 11.46875 16.65625 11.132812 16.648438 C 10.976562 16.648438 10.859375 16.636719 10.777344 16.617188 C 10.207031 16.488281 9.832031 15.992188 9.871094 15.40625 C 9.882812 15.261719 9.921875 15.121094 9.996094 14.992188 C 10.1875 14.648438 10.480469 14.449219 10.871094 14.390625 C 10.875 14.390625 10.875 14.390625 10.875 14.390625 C 10.882812 14.386719 10.882812 14.378906 10.878906 14.375 C 10.8125 14.257812 10.742188 14.140625 10.671875 14.023438 C 10.65625 13.992188 10.625 13.957031 10.589844 13.914062 C 10.585938 13.910156 10.578125 13.90625 10.574219 13.910156 C 10.085938 13.914062 9.59375 13.914062 9.105469 13.910156 C 8.730469 13.910156 8.414062 13.773438 8.199219 13.457031 C 8.164062 13.410156 8.132812 13.359375 8.101562 13.3125 C 8.101562 13.304688 8.09375 13.304688 8.089844 13.304688 C 7.75 13.308594 7.410156 13.308594 7.066406 13.304688 C 6.820312 13.304688 6.695312 13.550781 6.78125 13.765625 C 6.800781 13.8125 6.832031 13.855469 6.882812 13.902344 C 6.988281 14.007812 7.109375 14.082031 7.226562 14.167969 C 7.226562 14.167969 7.230469 14.167969 7.230469 14.171875 C 7.230469 14.175781 7.226562 14.179688 7.226562 14.179688 C 7.0625 14.226562 6.90625 14.289062 6.753906 14.367188 C 6.324219 14.59375 5.933594 14.921875 5.65625 15.320312 C 5.347656 15.761719 5.140625 16.25 5.03125 16.785156 C 5.023438 16.8125 5.019531 16.84375 5.015625 16.878906 C 5.015625 16.882812 5.019531 16.886719 5.027344 16.886719 C 6.179688 16.886719 7.332031 16.886719 8.488281 16.886719 C 8.710938 16.882812 8.890625 16.804688 9.03125 16.648438 C 9.375 16.269531 9.222656 15.738281 8.910156 15.402344 C 8.71875 15.195312 8.480469 15.054688 8.199219 14.980469 C 7.597656 14.820312 6.96875 15.03125 6.507812 15.4375 C 6.167969 15.738281 5.945312 16.117188 5.832031 16.578125 C 5.832031 16.585938 5.828125 16.589844 5.820312 16.589844 L 5.550781 16.589844 C 5.546875 16.589844 5.542969 16.585938 5.546875 16.582031 C 5.628906 16.226562 5.777344 15.902344 5.984375 15.601562 C 6.460938 14.914062 7.425781 14.476562 8.261719 14.703125 C 8.738281 14.832031 9.140625 15.121094 9.367188 15.5625 C 9.5625 15.941406 9.554688 16.429688 9.292969 16.777344 C 9.066406 17.082031 8.742188 17.183594 8.371094 17.183594 C 7.464844 17.183594 6.5625 17.183594 5.660156 17.183594 C 5.652344 17.183594 5.648438 17.183594 5.648438 17.191406 C 5.644531 17.753906 5.875 18.265625 6.328125 18.601562 C 6.328125 18.601562 6.328125 18.605469 6.328125 18.605469 C 6.328125 18.609375 6.328125 18.609375 6.324219 18.609375 C 6.058594 18.625 5.789062 18.636719 5.519531 18.644531 C 5.214844 18.65625 4.921875 18.675781 4.625 18.695312 C 4.179688 18.722656 3.742188 18.765625 3.300781 18.828125 C 3.265625 18.832031 3.230469 18.835938 3.199219 18.84375 C 3.195312 18.84375 3.195312 18.84375 3.195312 18.847656 C 3.195312 18.851562 3.195312 18.851562 3.199219 18.851562 C 3.269531 18.855469 3.34375 18.867188 3.410156 18.867188 C 3.773438 18.878906 4.128906 18.894531 4.488281 18.910156 C 4.605469 18.914062 4.726562 18.917969 4.847656 18.917969 C 5.203125 18.921875 5.558594 18.929688 5.914062 18.929688 C 8.421875 18.929688 10.925781 18.929688 13.429688 18.929688 C 14.652344 18.929688 15.484375 18.914062 16.488281 18.847656 C 16.5 18.847656 16.503906 18.847656 16.507812 18.84375 C 16.507812 18.84375 16.511719 18.839844 16.511719 18.839844 C 16.511719 18.835938 16.507812 18.832031 16.503906 18.832031 L 15.855469 18.746094 C 15.832031 18.742188 15.832031 18.734375 15.851562 18.726562 C 15.878906 18.707031 15.910156 18.6875 15.949219 18.667969 C 16.210938 18.511719 16.40625 18.289062 16.546875 18.019531 C 16.699219 17.730469 16.75 17.402344 16.707031 17.078125 C 16.679688 16.863281 16.585938 16.652344 16.472656 16.472656 Z M 13.875 11.628906 C 13.875 11.625 13.878906 11.625 13.878906 11.625 C 13.886719 11.625 13.890625 11.625 13.890625 11.632812 C 13.9375 11.890625 13.9375 12.148438 13.890625 12.40625 C 13.890625 12.410156 13.886719 12.410156 13.886719 12.410156 C 13.882812 12.414062 13.878906 12.414062 13.875 12.410156 C 13.859375 12.386719 13.84375 12.359375 13.832031 12.324219 C 13.742188 12.085938 13.757812 11.851562 13.875 11.628906 Z M 15.964844 17.59375 C 15.730469 18.210938 14.976562 18.335938 14.566406 17.816406 C 14.53125 17.777344 14.492188 17.703125 14.441406 17.601562 C 14.441406 17.59375 14.441406 17.589844 14.445312 17.585938 C 14.554688 17.488281 14.667969 17.390625 14.785156 17.304688 C 14.8125 17.28125 14.835938 17.265625 14.851562 17.253906 C 14.855469 17.253906 14.855469 17.253906 14.859375 17.253906 C 14.863281 17.253906 14.867188 17.257812 14.867188 17.261719 C 14.851562 17.371094 14.875 17.46875 14.933594 17.546875 C 15.070312 17.730469 15.351562 17.738281 15.496094 17.5625 C 15.621094 17.402344 15.574219 17.195312 15.402344 17.089844 C 15.355469 17.0625 15.308594 17.050781 15.253906 17.054688 C 15.253906 17.054688 15.25 17.054688 15.25 17.050781 C 15.25 17.050781 15.25 17.046875 15.253906 17.046875 C 15.449219 16.953125 15.65625 16.882812 15.867188 16.832031 C 15.875 16.828125 15.882812 16.832031 15.882812 16.835938 C 16.027344 17.054688 16.054688 17.351562 15.964844 17.59375 Z M 15.964844 17.59375 " fill-opacity="1" fill-rule="nonzero"/></g><path fill="#7ed957" d="M 3.324219 11.789062 C 3.867188 11.839844 4.414062 11.898438 4.960938 11.925781 C 5.011719 11.929688 5.050781 11.921875 5.074219 11.910156 C 5.175781 11.863281 5.1875 11.695312 5.09375 11.644531 C 5.066406 11.628906 5.023438 11.621094 4.964844 11.625 C 4.453125 11.644531 3.886719 11.703125 3.382812 11.761719 C 3.367188 11.761719 3.339844 11.761719 3.320312 11.773438 C 3.316406 11.777344 3.316406 11.777344 3.316406 11.777344 C 3.316406 11.785156 3.316406 11.785156 3.324219 11.789062 Z M 3.324219 11.789062 " fill-opacity="1" fill-rule="nonzero"/><path fill="#7ed957" d="M 12.742188 11.867188 C 12.820312 11.886719 12.882812 11.933594 12.925781 12.003906 C 12.964844 12.078125 12.976562 12.152344 12.957031 12.234375 C 12.9375 12.316406 12.890625 12.378906 12.820312 12.421875 C 12.746094 12.464844 12.671875 12.476562 12.59375 12.457031 C 12.511719 12.4375 12.453125 12.390625 12.410156 12.320312 C 12.367188 12.246094 12.355469 12.171875 12.375 12.089844 C 12.398438 12.007812 12.441406 11.945312 12.515625 11.902344 C 12.585938 11.859375 12.660156 11.847656 12.742188 11.867188 Z M 12.742188 11.867188 " fill-opacity="1" fill-rule="nonzero"/><path fill="#7ed957" d="M 3.34375 12.847656 C 4.261719 12.960938 5.183594 13.03125 6.109375 13.0625 C 6.234375 13.066406 6.320312 13.046875 6.363281 12.929688 C 6.386719 12.863281 6.390625 12.800781 6.375 12.746094 C 6.332031 12.609375 6.214844 12.59375 6.078125 12.597656 C 5.042969 12.632812 4.003906 12.679688 2.980469 12.800781 C 2.945312 12.804688 2.945312 12.808594 2.980469 12.8125 C 3.097656 12.828125 3.226562 12.835938 3.34375 12.847656 Z M 3.34375 12.847656 " fill-opacity="1" fill-rule="nonzero"/><path fill="#7ed957" d="M 2.1875 14.296875 C 3.101562 14.402344 4.015625 14.476562 4.933594 14.507812 C 5.042969 14.511719 5.15625 14.507812 5.269531 14.515625 C 5.585938 14.535156 5.5625 14.042969 5.253906 14.066406 C 5.058594 14.082031 4.820312 14.089844 4.664062 14.097656 C 4.316406 14.117188 3.972656 14.136719 3.625 14.15625 C 3.144531 14.183594 2.664062 14.230469 2.1875 14.285156 C 2.183594 14.285156 2.183594 14.289062 2.183594 14.289062 C 2.183594 14.292969 2.183594 14.296875 2.1875 14.296875 Z M 2.1875 14.296875 " fill-opacity="1" fill-rule="nonzero"/><g clip-path="url(#3b2a737c3d)"><path fill="#7ed957" d="M 4.292969 15.734375 C 4.363281 15.738281 4.414062 15.734375 4.445312 15.722656 C 4.574219 15.671875 4.59375 15.503906 4.515625 15.394531 C 4.476562 15.34375 4.429688 15.320312 4.378906 15.324219 C 4.171875 15.332031 3.75 15.351562 3.117188 15.390625 C 2.660156 15.414062 2.203125 15.460938 1.746094 15.519531 C 1.734375 15.519531 1.734375 15.523438 1.746094 15.527344 C 1.773438 15.535156 1.8125 15.535156 1.835938 15.535156 C 2.652344 15.628906 3.472656 15.691406 4.292969 15.734375 Z M 4.292969 15.734375 " fill-opacity="1" fill-rule="nonzero"/></g><g clip-path="url(#8c49f6f672)"><path fill="#7ed957" d="M 16.800781 16.152344 C 16.496094 15.683594 15.988281 15.359375 15.425781 15.328125 C 14.9375 15.304688 14.453125 15.539062 14.121094 15.890625 C 13.792969 16.242188 13.539062 16.710938 13.46875 17.191406 C 13.441406 17.378906 13.4375 17.570312 13.460938 17.761719 C 13.460938 17.761719 13.460938 17.765625 13.460938 17.765625 C 13.464844 17.769531 13.46875 17.765625 13.46875 17.765625 C 13.84375 17.289062 14.292969 16.914062 14.824219 16.640625 C 15.347656 16.367188 15.90625 16.214844 16.5 16.183594 C 16.597656 16.175781 16.695312 16.171875 16.792969 16.167969 C 16.792969 16.167969 16.796875 16.167969 16.796875 16.167969 C 16.804688 16.164062 16.804688 16.15625 16.800781 16.152344 Z M 16.800781 16.152344 " fill-opacity="1" fill-rule="nonzero"/></g><path fill="#7ed957" d="M 11.6875 16 C 11.726562 16.144531 11.757812 16.292969 11.78125 16.441406 C 11.785156 16.449219 11.789062 16.453125 11.796875 16.449219 C 11.929688 16.402344 12.117188 16.324219 12.355469 16.21875 C 12.570312 16.125 12.742188 15.988281 12.867188 15.8125 C 12.925781 15.730469 12.964844 15.667969 12.992188 15.578125 C 12.992188 15.574219 12.992188 15.570312 12.992188 15.570312 C 12.988281 15.5625 12.984375 15.558594 12.976562 15.5625 C 12.90625 15.578125 12.839844 15.601562 12.769531 15.632812 C 12.621094 15.703125 12.460938 15.734375 12.296875 15.726562 C 12.289062 15.726562 12.285156 15.726562 12.277344 15.730469 C 12.089844 15.832031 11.894531 15.914062 11.695312 15.980469 C 11.6875 15.984375 11.683594 15.992188 11.6875 16 Z M 11.6875 16 " fill-opacity="1" fill-rule="nonzero"/><g clip-path="url(#81638b499b)"><path fill="#7ed957" d="M 4.199219 17.046875 C 4.332031 16.988281 4.34375 16.808594 4.238281 16.714844 C 4.203125 16.683594 4.164062 16.671875 4.121094 16.671875 C 3.351562 16.703125 2.582031 16.765625 1.816406 16.855469 C 1.8125 16.855469 1.8125 16.859375 1.8125 16.859375 C 1.8125 16.859375 1.8125 16.863281 1.816406 16.863281 C 2.570312 16.96875 3.332031 17.046875 4.089844 17.0625 C 4.136719 17.066406 4.175781 17.058594 4.199219 17.046875 Z M 4.199219 17.046875 " fill-opacity="1" fill-rule="nonzero"/></g><path fill="#7ed957" d="M 5.117188 18.335938 C 5.308594 18.339844 5.363281 18.074219 5.1875 18.007812 C 5.121094 17.984375 5.039062 18.003906 4.972656 18.007812 C 4.367188 18.015625 3.777344 18.082031 3.175781 18.152344 C 3.171875 18.152344 3.171875 18.152344 3.171875 18.15625 C 3.171875 18.15625 3.171875 18.160156 3.175781 18.160156 C 3.625 18.21875 4.070312 18.257812 4.519531 18.300781 C 4.722656 18.320312 4.9375 18.332031 5.117188 18.335938 Z M 5.117188 18.335938 " fill-opacity="1" fill-rule="nonzero"/><g clip-path="url(#94507b385c)"><path fill="#7ed957" d="M 13.523438 19.273438 C 13.523438 19.269531 13.519531 19.269531 13.515625 19.269531 C 13.234375 19.257812 13.023438 19.253906 12.882812 19.25 C 10.59375 19.222656 8.308594 19.226562 6.023438 19.265625 C 6 19.269531 5.980469 19.269531 5.957031 19.269531 C 6.011719 19.273438 6.066406 19.277344 6.121094 19.285156 C 6.695312 19.328125 7.269531 19.34375 7.84375 19.378906 C 7.960938 19.382812 8.082031 19.390625 8.199219 19.394531 C 8.636719 19.410156 9.074219 19.425781 9.511719 19.445312 C 9.628906 19.449219 9.75 19.449219 9.867188 19.445312 C 10.394531 19.421875 10.917969 19.40625 11.441406 19.390625 C 11.984375 19.375 12.53125 19.339844 13 19.308594 C 13.226562 19.292969 13.402344 19.28125 13.523438 19.277344 C 13.53125 19.277344 13.53125 19.273438 13.523438 19.273438 Z M 13.523438 19.273438 " fill-opacity="1" fill-rule="nonzero"/></g></svg>